<svg width="39" height="40" viewBox="0 0 39 40" fill="none" xmlns="http://www.w3.org/2000/svg">
<path d="M33.5156 5.01562H5.48438C4.81025 5.01562 4.26562 5.56025 4.26562 6.23438V34.2656C4.26562 34.9397 4.81025 35.4844 5.48438 35.4844H33.5156C34.1897 35.4844 34.7344 34.9397 34.7344 34.2656V6.23438C34.7344 5.56025 34.1897 5.01562 33.5156 5.01562ZM22.7944 14.1144H28.0655V15.3979H22.7944V14.1144ZM19.5 24.6984C19.2535 25.1664 18.9014 25.5706 18.4717 25.8791C18.0223 26.1914 17.5233 26.4199 16.9939 26.5532C16.4401 26.7016 15.8687 26.7747 15.2953 26.7703H8.98828V13.7792H15.1201C15.7409 13.7792 16.3046 13.8363 16.8188 13.943C17.3291 14.0496 17.7633 14.2324 18.1289 14.48C18.4907 14.7275 18.7764 15.0589 18.9782 15.4702C19.1763 15.8777 19.2791 16.3881 19.2791 16.9937C19.2791 17.6487 19.1306 18.1896 18.8335 18.6275C18.5326 19.0655 18.0984 19.4197 17.5081 19.6978C18.3117 19.9263 18.9021 20.3338 19.2905 20.9051C19.6866 21.484 19.8809 22.1771 19.8809 22.9922C19.8809 23.6549 19.7552 24.2224 19.5 24.6984ZM30.1184 22.6875H23.3238C23.3238 23.4264 23.579 24.1348 23.9637 24.5156C24.3521 24.8927 24.9082 25.0831 25.6356 25.0831C26.1612 25.0831 26.6068 24.9498 26.9877 24.687C27.3647 24.4242 27.5933 24.1462 27.6771 23.8567H29.9546C29.589 24.9879 29.0329 25.7953 28.2788 26.2828C27.5323 26.7703 26.6183 27.0141 25.5557 27.0141C24.813 27.0141 24.1465 26.8922 23.5485 26.6599C22.9734 26.4352 22.4555 26.0924 22.0289 25.6506C21.6083 25.1969 21.2832 24.6633 21.0729 24.0814C20.8406 23.4378 20.7264 22.7599 20.734 22.0781C20.734 21.3735 20.8521 20.7185 21.0806 20.1091C21.5186 18.9246 22.4288 17.9763 23.5904 17.485C24.2112 17.226 24.8777 17.0965 25.5519 17.1041C26.3517 17.1041 27.0448 17.2564 27.6466 17.5688C28.2259 17.867 28.7289 18.2944 29.1167 18.818C29.5014 19.3397 29.7718 19.9339 29.9432 20.6042C30.1069 21.2631 30.1641 21.9562 30.1184 22.6875ZM25.4719 19.0465C25.0605 19.0465 24.714 19.1188 24.4474 19.2598C24.1808 19.4007 23.9599 19.5759 23.7923 19.7777C23.6327 19.9726 23.5147 20.1982 23.4457 20.4404C23.3848 20.6423 23.3429 20.8479 23.3276 21.0574H27.5361C27.4752 20.3985 27.2467 19.911 26.942 19.5683C26.6221 19.2293 26.1079 19.0465 25.4719 19.0465ZM16.0075 18.6618C16.3389 18.4219 16.4988 18.0258 16.4988 17.4812C16.5103 17.2222 16.4569 16.967 16.3427 16.7347C16.2398 16.548 16.0875 16.3919 15.9009 16.2814C15.7074 16.1641 15.4925 16.0864 15.2687 16.0529C15.0249 16.0072 14.7773 15.9844 14.5336 15.9882H11.8562V19.0236H14.7545C15.2534 19.0274 15.6762 18.9056 16.0075 18.6618ZM16.4569 21.404C16.0837 21.1184 15.5848 20.9774 14.964 20.9774H11.8485V24.5575H14.903C15.1887 24.5575 15.4515 24.5309 15.7066 24.4775C15.9618 24.4242 16.1903 24.3328 16.3846 24.2033C16.5788 24.0776 16.735 23.9062 16.853 23.6854C16.9673 23.4645 17.0244 23.1826 17.0244 22.8437C17.0244 22.1695 16.834 21.6935 16.4569 21.404Z" fill="white"/>
</svg>
