<svg width="39" height="40" viewBox="0 0 39 40" fill="none" xmlns="http://www.w3.org/2000/svg">
<path d="M33.5156 5.01562H5.48438C4.81025 5.01562 4.26562 5.56025 4.26562 6.23438V34.2656C4.26562 34.9397 4.81025 35.4844 5.48438 35.4844H33.5156C34.1897 35.4844 34.7344 34.9397 34.7344 34.2656V6.23438C34.7344 5.56025 34.1897 5.01562 33.5156 5.01562ZM13.3034 30.9788H8.78262V16.4376H13.3034V30.9788ZM11.0449 14.4495C10.5267 14.4495 10.0201 14.2958 9.58915 14.0079C9.15825 13.72 8.82239 13.3107 8.62407 12.8319C8.42574 12.3531 8.37385 11.8263 8.47496 11.318C8.57606 10.8097 8.82562 10.3428 9.19208 9.97636C9.55854 9.6099 10.0254 9.36034 10.5337 9.25923C11.042 9.15813 11.5689 9.21002 12.0477 9.40835C12.5265 9.60667 12.9357 9.94252 13.2236 10.3734C13.5116 10.8043 13.6652 11.311 13.6652 11.8292C13.6614 13.2765 12.4884 14.4495 11.0449 14.4495ZM30.2288 30.9788H25.7118V23.9062C25.7118 22.219 25.6813 20.052 23.3619 20.052C21.012 20.052 20.6502 21.8877 20.6502 23.7844V30.9788H16.137V16.4376H20.4712V18.4257H20.5321C21.1339 17.2831 22.6078 16.0758 24.8092 16.0758C29.3871 16.0758 30.2288 19.0884 30.2288 23.0036V30.9788Z" fill="white"/>
</svg>
