<svg width="39" height="40" viewBox="0 0 39 40" fill="none" xmlns="http://www.w3.org/2000/svg">
<path fill-rule="evenodd" clip-rule="evenodd" d="M5.48438 5.01562H33.5156C34.1897 5.01562 34.7344 5.56025 34.7344 6.23438V34.2656C34.7344 34.9397 34.1897 35.4844 33.5156 35.4844H5.48438C4.81025 35.4844 4.26562 34.9397 4.26562 34.2656V6.23438C4.26562 5.56025 4.81025 5.01562 5.48438 5.01562Z" fill="white"/>
<path d="M21.4979 18.6421L29.3156 9.75H27.463L20.6749 17.4709L15.2532 9.75H9L17.1986 21.4253L9 30.75H10.8527L18.0211 22.5965L23.7468 30.75H30L21.4974 18.6421H21.4979ZM18.9604 21.5282L18.1297 20.3656L11.5202 11.1147H14.3658L19.6997 18.5804L20.5304 19.743L27.4639 29.4474H24.6183L18.9604 21.5286V21.5282Z" fill="black"/>
</svg>
