<svg width="270" height="80" viewBox="0 0 270 80" fill="none" xmlns="http://www.w3.org/2000/svg">
<path fill-rule="evenodd" clip-rule="evenodd" d="M56.3788 23.1133L61.4797 31.9483L49.3115 53.0242C46.6333 49.6852 45.0312 45.4459 45.0312 40.8325C45.0312 32.9734 49.6806 26.2002 56.3788 23.1133ZM60.3387 44.4463L64.5171 37.2091L68.6955 44.4463H60.3387ZM57.3013 49.7072L53.2436 56.7353C56.4292 59.0005 60.3247 60.3325 64.5312 60.3325C72.1047 60.3325 78.6697 56.0151 81.8994 49.7072H71.7463L71.7362 49.713L71.7328 49.7072H57.3013ZM74.7702 44.4463H83.697C83.9165 43.2753 84.0312 42.0673 84.0312 40.8325C84.0312 30.063 75.3008 21.3325 64.5312 21.3325C63.5195 21.3325 62.5258 21.4096 61.5557 21.5581L74.7702 44.4463Z" fill="white"/>
<path d="M96.66 51.3559H99.949C100.547 51.3559 100.876 50.997 101.025 50.6382L102.102 48.2463H110.235L111.311 50.6084C111.58 51.1765 111.819 51.3559 112.358 51.3559H115.676C116.125 51.3559 116.364 50.9672 116.185 50.5785L106.826 30.1874C106.736 30.008 106.527 29.8585 106.318 29.8585H106.019C105.809 29.8585 105.6 30.008 105.51 30.1874L96.1517 50.5785C95.9723 50.9672 96.2115 51.3559 96.66 51.3559ZM103.896 43.9115L106.138 38.978H106.168L108.441 43.9115H103.896Z" fill="white"/>
<path d="M120.725 35.4944C122.04 35.4944 123.117 34.4479 123.117 33.1323C123.117 31.8167 122.04 30.7403 120.725 30.7403C119.409 30.7403 118.362 31.8167 118.362 33.1323C118.362 34.4479 119.409 35.4944 120.725 35.4944ZM118.536 50.7872C118.536 51.0862 118.805 51.3553 119.104 51.3553H122.393C122.692 51.3553 122.962 51.0862 122.962 50.7872L122.967 39.6804C122.967 39.3515 122.698 39.1123 122.399 39.1123H119.11C118.811 39.1123 118.542 39.3515 118.542 39.6804L118.536 50.7872Z" fill="white"/>
<path d="M126.445 49.069C127.132 49.7567 129.285 51.3713 133.172 51.3713C137.567 51.3713 140.229 48.2617 140.229 45.182C140.229 41.1156 136.521 39.2917 134.189 38.3648C131.827 37.408 130.93 36.5708 130.93 35.4645C130.93 34.6572 131.737 33.9396 132.813 33.9396C134.637 33.9396 136.82 35.5841 137.089 35.7336C137.358 35.9429 137.896 35.6738 138.106 35.3449L139.631 33.0426C139.75 32.8333 139.81 32.2951 139.451 32.0858C138.554 31.428 136.162 29.8433 133.053 29.8433C128.448 29.8433 126.146 32.8333 126.146 35.7934C126.146 39.3814 129.375 41.3847 131.946 42.4013C133.979 43.2086 135.026 44.1654 135.026 45.4212C135.026 46.4677 134.159 47.2152 132.963 47.2152C130.989 47.2152 128.837 45.6305 128.717 45.5707C128.508 45.4212 127.94 45.3614 127.7 45.7501L126.295 48.2318C126.056 48.6504 126.146 48.77 126.445 49.069Z" fill="white"/>
<path d="M143.244 40.6372C143.244 46.6172 148.058 51.3713 154.038 51.3713C156.699 51.3713 159.27 50.4444 161.304 48.471C161.513 48.2617 161.543 47.873 161.333 47.6637L159.001 45.182C158.822 44.9727 158.433 44.9727 158.224 45.1521C157.147 46.079 155.623 46.5873 154.217 46.5873C150.839 46.5873 148.327 43.8365 148.327 40.5176C148.327 37.1688 150.809 34.3582 154.187 34.3582C155.652 34.3582 157.118 34.8964 158.224 35.8831C158.433 36.0924 158.762 36.0924 158.971 35.8831L161.304 33.4612C161.543 33.222 161.543 32.8632 161.274 32.624C159.24 30.7702 157.028 29.8433 154.038 29.8433C148.058 29.8433 143.244 34.6572 143.244 40.6372Z" fill="white"/>
<path d="M164.172 40.6372C164.172 46.6172 168.926 51.3713 174.906 51.3713C180.886 51.3713 185.67 46.6172 185.67 40.6372C185.67 34.6572 180.886 29.8433 174.906 29.8433C168.926 29.8433 164.172 34.6572 164.172 40.6372ZM168.956 40.6372C168.956 37.3482 171.647 34.6273 174.906 34.6273C178.195 34.6273 180.886 37.3482 180.886 40.6372C180.886 43.8963 178.195 46.5873 174.906 46.5873C171.647 46.5873 168.956 43.8963 168.956 40.6372Z" fill="white"/>
<path d="M189.887 43.0591C189.887 47.6039 193.685 51.3713 198.379 51.3713C203.103 51.3713 206.931 47.6039 206.931 43.0591V30.7104C206.931 30.4114 206.661 30.1423 206.362 30.1423H202.685C202.356 30.1423 202.117 30.4114 202.117 30.7104V42.8199C202.117 44.9129 200.532 46.5873 198.379 46.5873C196.256 46.5873 194.701 44.9129 194.701 42.8199V30.7104C194.701 30.4114 194.462 30.1423 194.133 30.1423H190.456C190.157 30.1423 189.887 30.4114 189.887 30.7104V43.0591Z" fill="white"/>
<path d="M215.347 50.7879C215.347 51.0869 215.616 51.356 215.915 51.356H219.503C219.802 51.356 220.071 51.0869 220.071 50.7879V34.8213H224.347C224.676 34.8213 224.915 34.5522 224.915 34.2532V30.9941C224.915 30.6951 224.676 30.426 224.347 30.426H211.071C210.743 30.426 210.503 30.6951 210.503 30.9941V34.2532C210.503 34.5522 210.743 34.8213 211.071 34.8213H215.347V50.7879Z" fill="white"/>
<path d="M123.117 33.1135C123.117 34.4297 122.05 35.4966 120.734 35.4966C119.418 35.4966 118.351 34.4297 118.351 33.1135C118.351 31.7974 119.418 30.7305 120.734 30.7305C122.05 30.7305 123.117 31.7974 123.117 33.1135Z" fill="white"/>
</svg>
