<svg width="270" height="80" viewBox="0 0 270 80" fill="none" xmlns="http://www.w3.org/2000/svg">
<g clip-path="url(#clip0_2478_47964)">
<path d="M60 78.4275C60 78.6262 60.1573 78.8014 60.3728 78.8014H65.1149C67.5034 78.8014 69.3851 77.2064 69.3851 75.0095C69.3851 73.1983 67.8762 72.1408 66.8393 71.8077C67.7597 71.3754 68.9948 70.1952 68.9948 68.6819C68.9948 66.6194 67.1888 65.0477 64.8586 65.0477H60.3728C60.1573 65.0477 60 65.223 60 65.4217V78.4334V78.4275ZM62.5283 70.8203V67.379H64.6255C65.6275 67.379 66.3091 68.0684 66.3091 69.05C66.3091 70.0316 65.6217 70.8203 64.6255 70.8203H62.5283ZM62.5283 76.4819V72.9821H64.6663C65.6858 72.9821 66.6645 73.7066 66.6645 74.694C66.6645 75.6814 65.878 76.4819 64.8993 76.4819H62.5283ZM72.6183 78.4275C72.6183 78.6262 72.7756 78.8014 72.9911 78.8014H74.7971C74.9951 78.8014 75.1699 78.6262 75.1699 78.4275V73.4145H77.3429L79.9469 78.6262C79.9877 78.7021 80.0867 78.8014 80.2615 78.8014H82.3179C82.65 78.8014 82.7898 78.4859 82.65 78.2289L79.9644 73.2334C81.6713 72.5439 82.8655 71.0716 82.8655 69.2603C82.8655 66.9232 80.9431 65.0361 78.5954 65.0361H72.9911C72.7756 65.0361 72.6183 65.2113 72.6183 65.41V78.4217V78.4275ZM75.1874 71.3111V67.3965H78.3798C79.4168 67.3965 80.3198 68.2612 80.3198 69.3012C80.3198 70.3996 79.4168 71.3053 78.3798 71.3053H75.1874V71.3111ZM84.7472 78.8014H86.4541C86.7687 78.8014 86.9435 78.6028 87.025 78.41L87.9863 76.2891H93.8468L94.8081 78.41C94.9479 78.6846 95.0819 78.8014 95.379 78.8014H97.0859C97.383 78.8014 97.5345 78.5444 97.4179 78.2931L91.3826 65.0653C91.3243 64.9484 91.2428 64.8491 91.0505 64.8491H90.8525C90.6777 64.8491 90.5787 64.9484 90.5204 65.0653L84.4268 78.2931C84.3103 78.5502 84.4676 78.8014 84.7589 78.8014H84.7472ZM88.9417 74.1039L90.8641 69.7803H90.9224L92.8798 74.1039H88.9417ZM99.0142 77.4635C99.4045 77.8374 100.855 78.9943 103.325 78.9943C106.086 78.9943 107.834 77.1246 107.834 75.103C107.834 72.5673 105.638 71.428 103.739 70.6626C102.148 70.014 101.426 69.383 101.426 68.4599C101.426 67.8289 102.032 67.081 103.15 67.081C104.269 67.081 105.719 68.0626 105.877 68.1619C106.11 68.3196 106.407 68.1619 106.564 67.9282L107.31 66.8064C107.45 66.6077 107.386 66.2747 107.193 66.1578C106.803 65.8657 105.271 64.8432 103.273 64.8432C100.156 64.8432 98.8627 66.8707 98.8627 68.6176C98.8627 70.9372 100.704 72.1174 102.55 72.8653C104.199 73.5313 105.038 74.2208 105.038 75.2257C105.038 76.0729 104.275 76.739 103.255 76.739C101.979 76.739 100.395 75.5821 100.296 75.5179C100.121 75.3776 99.789 75.3776 99.6317 75.6581L98.9268 76.8792C98.752 77.1947 98.851 77.294 99.0258 77.4693L99.0142 77.4635ZM110.164 77.4635C110.555 77.8374 112.005 78.9943 114.475 78.9943C117.237 78.9943 118.984 77.1246 118.984 75.103C118.984 72.5673 116.788 71.428 114.889 70.6626C113.299 70.014 112.576 69.383 112.576 68.4599C112.576 67.8289 113.182 67.081 114.301 67.081C115.419 67.081 116.87 68.0626 117.027 68.1619C117.26 68.3196 117.557 68.1619 117.714 67.9282L118.46 66.8064C118.6 66.6077 118.536 66.2747 118.344 66.1578C117.953 65.8657 116.421 64.8432 114.423 64.8432C111.306 64.8432 110.013 66.8707 110.013 68.6176C110.013 70.9372 111.854 72.1174 113.701 72.8653C115.349 73.5313 116.188 74.2208 116.188 75.2257C116.188 76.0729 115.425 76.739 114.405 76.739C113.13 76.739 111.545 75.5821 111.446 75.5179C111.271 75.3776 110.939 75.3776 110.782 75.6581L110.077 76.8792C109.902 77.1947 110.001 77.294 110.176 77.4693L110.164 77.4635ZM125.451 78.3457C125.41 78.6203 125.567 78.7956 125.824 78.7956H127.589C127.764 78.7956 127.921 78.6378 127.944 78.5035L129.08 71.054H129.138L132.61 78.7781C132.669 78.8949 132.768 78.9943 132.943 78.9943H133.298C133.473 78.9943 133.589 78.8949 133.63 78.7781L137.061 71.054H137.12L138.273 78.5035C138.314 78.6437 138.471 78.7956 138.646 78.7956H140.428C140.685 78.7956 140.842 78.6203 140.784 78.3457L138.471 65.1354C138.454 64.9776 138.331 64.8432 138.116 64.8432H137.801C137.626 64.8432 137.527 64.9192 137.469 65.0419L133.158 74.3201H133.1L128.789 65.0419C128.731 64.925 128.614 64.8432 128.457 64.8432H128.142C127.927 64.8432 127.81 64.9835 127.787 65.1354L125.457 78.3457H125.451ZM143.009 71.9363C143.009 75.8684 146.126 78.9943 150.047 78.9943C153.967 78.9943 157.101 75.8684 157.101 71.9363C157.101 68.0041 153.967 64.8374 150.047 64.8374C146.126 64.8374 143.009 68.0041 143.009 71.9363ZM145.555 71.9363C145.555 69.459 147.577 67.3965 150.041 67.3965C152.505 67.3965 154.55 69.459 154.55 71.9363C154.55 74.4136 152.511 76.441 150.041 76.441C147.571 76.441 145.555 74.4136 145.555 71.9363ZM160.195 78.4217C160.195 78.6203 160.37 78.7956 160.568 78.7956H162.35C162.566 78.7956 162.723 78.6203 162.723 78.4217V69.9673H162.741L170.931 78.9884H171.403C171.601 78.9884 171.776 78.8307 171.776 78.632V65.4041C171.776 65.2055 171.601 65.0302 171.403 65.0302H169.597C169.382 65.0302 169.225 65.2055 169.225 65.4041V73.5255H169.207L161.051 64.8374H160.562C160.364 64.8374 160.189 64.9952 160.189 65.1938V78.4217H160.195ZM175.872 78.3223C175.872 78.5794 176.07 78.7956 176.343 78.7956H178.068C178.324 78.7956 178.54 78.5794 178.54 78.3223V72.3277L183.655 78.6554C183.695 78.7138 183.812 78.7956 184.01 78.7956H186.148C186.538 78.7956 186.696 78.3632 186.503 78.1062L181.016 71.5214L186.13 65.743C186.387 65.4509 186.189 65.0361 185.816 65.0361H183.858C183.684 65.0361 183.567 65.1354 183.486 65.2347L178.545 70.8203V65.5152C178.545 65.2581 178.33 65.0419 178.074 65.0419H176.349C176.075 65.0419 175.877 65.2581 175.877 65.5152V78.334L175.872 78.3223ZM189.177 78.4217C189.177 78.6203 189.335 78.7956 189.55 78.7956H197.525C197.741 78.7956 197.898 78.6203 197.898 78.4217V76.8091C197.898 76.6104 197.741 76.4352 197.525 76.4352H191.723V72.9938H196.564C196.762 72.9938 196.937 72.8361 196.937 72.6199V70.9898C196.937 70.7911 196.762 70.6158 196.564 70.6158H191.723V67.3907H197.525C197.741 67.3907 197.898 67.2154 197.898 67.0167V65.4041C197.898 65.2055 197.741 65.0302 197.525 65.0302H189.55C189.335 65.0302 189.177 65.2055 189.177 65.4041V78.4158V78.4217ZM203.858 78.4217C203.858 78.6203 204.015 78.7956 204.231 78.7956H206.037C206.235 78.7956 206.409 78.6203 206.409 78.4217V72.1525L210.936 65.6086C211.093 65.3516 210.936 65.0361 210.621 65.0361H208.6C208.443 65.0361 208.344 65.1354 208.285 65.2113L205.151 69.7336L202.017 65.2113C201.959 65.1354 201.86 65.0361 201.702 65.0361H199.704C199.39 65.0361 199.232 65.3516 199.39 65.6086L203.858 72.1758V78.4275V78.4217Z" fill="white"/>
<path d="M134.772 30.6342V29.6526L134.014 30.0908L133.234 28.7411L135.546 27.4031L137.859 28.7411L137.078 30.0908L136.321 29.6526V30.6342H134.766H134.772ZM139.525 25.3816L142.991 23.3775V25.1771L139.525 27.1811L137.358 25.9249V24.1195L139.525 25.3757V25.3816ZM131.573 27.1811L133.74 25.9249V24.1195L131.573 25.3757L128.107 23.3717V25.1712L131.573 27.1753V27.1811ZM135.546 1C143.061 1 149.866 4.05573 154.794 8.99865C159.717 13.9416 162.769 20.7658 162.769 28.3029C162.769 35.84 159.723 42.6701 154.794 47.6072C149.866 52.5501 143.061 55.6058 135.546 55.6058C128.031 55.6058 121.227 52.5501 116.299 47.6072C111.376 42.6643 108.323 35.84 108.323 28.3029C108.323 20.7658 111.37 13.9357 116.299 8.99865C121.227 4.05573 128.031 1 135.546 1ZM153.693 10.1029C149.05 5.44629 142.63 2.56584 135.546 2.56584C128.462 2.56584 122.043 5.44629 117.4 10.1029C112.757 14.7595 109.885 21.1982 109.885 28.3029C109.885 35.4076 112.757 41.8463 117.4 46.5029C122.043 51.1595 128.462 54.04 135.546 54.04C142.63 54.04 149.05 51.1595 153.693 46.5029C158.336 41.8463 161.208 35.4076 161.208 28.3029C161.208 21.1982 158.336 14.7595 153.693 10.1029ZM135.546 4.19595C135.808 4.19595 136.065 4.19595 136.327 4.20764V11.3883L145.234 6.22921C145.805 6.48045 146.37 6.75506 146.918 7.05303L138.156 12.1303C141.622 12.6854 144.728 14.3389 147.104 16.7227C147.495 17.1142 147.868 17.529 148.217 17.9613V7.80674C148.753 8.13977 149.266 8.49034 149.773 8.85843V19.1708L155.977 15.5775C156.251 16.0157 156.513 16.4656 156.757 16.9272L150.553 20.5204L159.455 25.6737C159.519 26.2872 159.565 26.9124 159.583 27.5434L150.827 22.4719C151.514 24.2831 151.893 26.2463 151.893 28.2971C151.893 30.3479 151.514 32.311 150.833 34.1222L159.589 29.0508C159.571 29.6818 159.525 30.307 159.461 30.9263L150.559 36.0795L156.763 39.6728C156.519 40.1285 156.256 40.5784 155.983 41.0225L149.778 37.4292V47.7357C149.277 48.1038 148.759 48.4544 148.229 48.7874V38.6386C147.879 39.071 147.506 39.4858 147.11 39.8773C144.733 42.2611 141.628 43.9146 138.162 44.4697L146.924 49.547C146.376 49.8449 145.817 50.1137 145.246 50.3708L136.339 45.2117V52.3924C136.082 52.3982 135.82 52.404 135.558 52.404C135.296 52.404 135.04 52.404 134.777 52.3924V45.2117L125.87 50.3708C125.299 50.1195 124.734 49.8449 124.186 49.547L132.948 44.4697C129.482 43.9146 126.377 42.2611 124 39.8773C123.61 39.4858 123.237 39.071 122.887 38.6386V48.7874C122.351 48.4544 121.839 48.1038 121.332 47.7357V37.4234L115.128 41.0166C114.854 40.5784 114.597 40.1285 114.353 39.6728L120.557 36.0795L111.65 30.9263C111.586 30.307 111.539 29.6876 111.522 29.0566L120.277 34.1281C119.59 32.3169 119.211 30.3537 119.211 28.3029C119.211 26.2521 119.59 24.289 120.272 22.4778L111.516 27.5492C111.533 26.9182 111.58 26.293 111.644 25.6737L120.545 20.5204L114.341 16.9272C114.586 16.4715 114.842 16.0216 115.116 15.5834L121.32 19.1766V8.85843C121.821 8.49034 122.34 8.13977 122.87 7.80674V17.9555C123.219 17.5231 123.592 17.1083 123.988 16.7169C126.365 14.333 129.47 12.6796 132.936 12.1245L124.169 7.04719C124.717 6.75506 125.276 6.48045 125.847 6.22337L134.754 11.3825V4.20764C135.01 4.2018 135.273 4.19595 135.535 4.19595H135.546ZM145.992 17.827C143.487 15.3146 140.09 13.702 136.321 13.5092V19.9187L137.009 19.5213C138.651 18.569 140.516 18.3762 142.211 18.8319C143.906 19.2876 145.427 20.3919 146.376 22.0337C147.32 23.6813 147.518 25.551 147.064 27.2512C146.609 28.9515 145.508 30.4764 143.871 31.4288L143.178 31.8319L148.718 35.0395C149.743 33.018 150.326 30.7335 150.326 28.3088C150.326 24.2189 148.671 20.5088 145.998 17.827H145.992ZM134.766 13.5092C130.997 13.7079 127.6 15.3204 125.095 17.827C122.421 20.5088 120.767 24.213 120.767 28.3088C120.767 30.7335 121.343 33.018 122.375 35.0337L127.909 31.8261L127.222 31.4288C125.579 30.4764 124.478 28.9515 124.023 27.2512C123.569 25.551 123.761 23.6755 124.711 22.0337C125.654 20.3919 127.181 19.2876 128.876 18.8319C130.571 18.3762 132.441 18.569 134.078 19.5213L134.766 19.9187V13.5092ZM123.155 36.3834C123.72 37.2539 124.373 38.0602 125.101 38.7906C127.775 41.4724 131.468 43.1317 135.546 43.1317C139.624 43.1317 143.324 41.4724 145.992 38.7906C146.72 38.0602 147.372 37.2539 147.937 36.3834L142.403 33.1816V33.982C142.403 35.8809 141.634 37.5986 140.393 38.8431C139.152 40.0935 137.44 40.8589 135.546 40.8589C133.653 40.8589 131.94 40.0876 130.699 38.8431C129.459 37.5928 128.69 35.8751 128.69 33.9762V33.1816L123.155 36.3834ZM141.622 30.9321L143.091 30.0849C144.361 29.3488 145.211 28.1685 145.561 26.8539C145.91 25.5393 145.764 24.0903 145.03 22.8166C144.296 21.5429 143.12 20.6899 141.809 20.3393C140.498 19.9888 139.048 20.1348 137.783 20.871L135.546 22.1681L133.303 20.871C132.034 20.1348 130.589 19.9888 129.278 20.3393C127.967 20.6899 126.79 21.5488 126.056 22.8166C125.322 24.0845 125.177 25.5393 125.526 26.8539C125.876 28.1685 126.732 29.3488 127.996 30.0849L129.459 30.9321L131.224 29.9097L132.004 31.2593L130.239 32.2818V33.982C130.239 34.6306 130.356 35.2499 130.565 35.8225L135.541 32.942L140.516 35.8225C140.725 35.2499 140.842 34.6306 140.842 33.982V32.2818L139.077 31.2593L139.851 29.9097L141.622 30.9321ZM131.311 37.1838C131.457 37.3766 131.62 37.5636 131.789 37.7389C132.75 38.6971 134.078 39.293 135.541 39.293C137.003 39.293 138.331 38.6971 139.292 37.7389C139.467 37.5636 139.624 37.3825 139.776 37.1838L135.546 34.7357L131.317 37.1897L131.311 37.1838Z" fill="white"/>
</g>
<defs>
<clipPath id="clip0_2478_47964">
<rect width="151" height="78" fill="white" transform="translate(60 1)"/>
</clipPath>
</defs>
</svg>
