<svg width="270" height="80" viewBox="0 0 270 80" fill="none" xmlns="http://www.w3.org/2000/svg">
<path fill-rule="evenodd" clip-rule="evenodd" d="M83.2934 39.6467C83.2934 51.047 74.0503 60.2901 62.6467 60.2901C51.2431 60.2901 42 51.0503 42 39.6467C42 28.2431 51.2431 19 62.6467 19C74.0503 19 83.2934 28.2464 83.2934 39.6467ZM65.5351 33.8628L77.0956 45.4234L74.2072 48.3152L62.6466 36.7546L51.0827 48.3152L48.1942 45.4234V30.971H52.2815V41.3361L59.7548 33.8628L62.6466 30.971L65.5351 33.8628Z" fill="white"/>
<path d="M217.849 46.4051L211.491 31.7056H206.289L215.331 52.5994L211.945 61.0244H217.108L228.999 31.709H223.796L217.849 46.4084V46.4051ZM199.5 53.1771H204.866V24.2724H199.5V53.1771ZM189.793 37.1987C190.824 37.9701 191.492 39.0587 191.796 40.4612H181.184C181.488 39.0587 182.132 37.9701 183.124 37.1987C184.116 36.4273 185.231 36.0433 186.47 36.0433C187.709 36.0433 188.761 36.4273 189.793 37.1987ZM181.598 32.6172C180.002 33.3886 178.619 34.6408 177.447 36.3739C176.275 38.107 175.691 40.1439 175.691 42.4848C175.691 43.9173 175.925 45.2497 176.392 46.4886C176.86 47.7274 177.471 48.7659 178.229 49.6041C178.987 50.4456 179.845 51.1602 180.81 51.7512C181.772 52.3423 182.743 52.7764 183.722 53.0502C184.7 53.3241 185.642 53.4643 186.55 53.4643C190.046 53.4643 192.908 52.172 195.139 49.5841L190.804 47.3134C189.813 48.3853 188.41 48.9229 186.594 48.9229C185.381 48.9229 184.239 48.5188 183.168 47.7041C182.096 46.8926 181.418 45.7973 181.144 44.4216H196.999C197.082 43.8172 197.122 43.1693 197.122 42.4814C197.122 40.7216 196.785 39.1088 196.111 37.6495C195.436 36.1902 194.568 35.0282 193.509 34.16C192.451 33.2918 191.305 32.6239 190.083 32.1564C188.858 31.6889 187.652 31.4552 186.47 31.4552C184.817 31.4552 183.194 31.8392 181.598 32.6106M159.632 33.0246C158.323 34.0431 157.452 35.1584 157.011 36.3706C156.266 34.7176 155.188 33.4955 153.769 32.694C152.349 31.896 150.773 31.4952 149.04 31.4952C147.14 31.4952 145.627 32.0128 144.499 33.0447C143.37 34.0765 142.736 35.0883 142.599 36.08V31.7023H137.273V53.1738H142.599V40.9521C143.343 37.6228 145.143 35.9565 148.008 35.9565C149.384 35.9565 150.499 36.444 151.351 37.4224C152.202 38.4008 152.63 39.7566 152.63 41.4897V53.1738H157.956V40.9521C158.34 39.4928 158.995 38.2973 159.916 37.359C160.838 36.424 162.017 35.9565 163.446 35.9565C164.768 35.9565 165.853 36.444 166.708 37.4224C167.56 38.4008 167.987 39.7566 167.987 41.4897V53.1738H173.313V41.4463C173.313 38.0335 172.489 35.5224 170.836 33.9095C169.183 32.3 167.132 31.4952 164.685 31.4952C162.621 31.4952 160.935 32.0061 159.626 33.0246M129.425 42.4814C129.425 44.4616 128.861 46.0311 127.732 47.1898C126.604 48.3452 125.308 48.9229 123.852 48.9229C122.396 48.9229 121.1 48.3452 119.972 47.1898C118.843 46.0344 118.279 44.465 118.279 42.4814C118.279 40.4979 118.843 38.8884 119.972 37.733C121.1 36.5776 122.393 35.9999 123.852 35.9999C125.311 35.9999 126.604 36.5776 127.732 37.733C128.861 38.8884 129.425 40.4712 129.425 42.4814ZM116.749 34.16C115.647 35.0282 114.746 36.1902 114.045 37.6495C113.343 39.1088 112.993 40.7183 112.993 42.4814C112.993 43.914 113.226 45.2464 113.694 46.4852C114.161 47.7241 114.773 48.7626 115.531 49.6008C116.289 50.4423 117.147 51.1569 118.112 51.7479C119.074 52.339 120.045 52.7731 121.024 53.0469C121.999 53.3207 122.944 53.461 123.852 53.461C124.76 53.461 125.702 53.324 126.68 53.0469C127.659 52.7731 128.627 52.339 129.592 51.7479C130.554 51.1569 131.415 50.4423 132.173 49.6008C132.932 48.7626 133.543 47.7208 134.01 46.4852C134.478 45.2464 134.711 43.9107 134.711 42.4814C134.711 40.7216 134.361 39.1088 133.659 37.6495C132.958 36.1902 132.057 35.0282 130.955 34.16C129.853 33.2918 128.684 32.6239 127.445 32.1564C126.206 31.6889 125.011 31.4552 123.852 31.4552C122.693 31.4552 121.498 31.6889 120.259 32.1564C119.02 32.6239 117.851 33.2918 116.749 34.16ZM97.5119 33.0847C96.1761 34.1433 95.4549 35.115 95.3447 35.9966V24.269H90.0586V53.1704H95.3447V41.0723C95.5083 40.164 96.1494 39.0987 97.2647 37.8732C98.3801 36.6477 99.7492 36.0366 101.372 36.0366C103.987 36.0366 105.296 37.7297 105.296 41.1157V53.1738H110.582V40.7851C110.582 37.6462 109.797 35.3154 108.228 33.786C106.658 32.2566 104.758 31.4952 102.531 31.4952C100.521 31.4952 98.8476 32.0262 97.5152 33.0847" fill="white"/>
</svg>
