<svg width="100" height="100" viewBox="0 0 100 100" fill="none" xmlns="http://www.w3.org/2000/svg">
<g clip-path="url(#clip0_3390_49694)">
<circle cx="50" cy="50" r="48.5" fill="#98D6ED" stroke="#182020" stroke-width="3"/>
<circle cx="50" cy="50" r="40" fill="white"/>
<path d="M49.9999 28C46.023 28.0045 42.2103 29.5821 39.3983 32.3867C36.5863 35.1913 35.0045 38.9938 35 42.96C35 48.3075 36.73 50.2275 38.403 52.0843C40.052 53.9146 41.6098 55.6437 41.6098 61.6779C41.6098 62.041 41.7544 62.3892 42.0118 62.6459C42.2692 62.9027 42.6184 63.0469 42.9824 63.0469H57.5074C57.8714 63.0469 58.2206 62.9027 58.478 62.6459C58.7354 62.3892 58.88 62.041 58.88 61.6779C58.88 55.5241 60.371 53.6577 61.9495 51.6823C63.4491 49.8052 65 47.8642 65 42.96C64.9955 38.9938 63.4137 35.1912 60.6016 32.3866C57.7895 29.582 53.9768 28.0045 49.9999 28ZM51.2039 47.187C51.2061 47.3461 51.1766 47.504 51.1171 47.6516C51.0576 47.7992 50.9692 47.9335 50.8572 48.0468C50.7452 48.16 50.6118 48.25 50.4646 48.3114C50.3174 48.3728 50.1595 48.4044 50 48.4044C49.8405 48.4044 49.6826 48.3728 49.5354 48.3114C49.3882 48.25 49.2548 48.16 49.1428 48.0468C49.0308 47.9335 48.9424 47.7992 48.8829 47.6516C48.8234 47.504 48.7939 47.3461 48.7961 47.187V41.8673C48.7939 41.7083 48.8234 41.5504 48.8829 41.4028C48.9424 41.2552 49.0308 41.1208 49.1428 41.0076C49.2548 40.8943 49.3882 40.8044 49.5354 40.743C49.6826 40.6816 49.8405 40.65 50 40.65C50.1595 40.65 50.3174 40.6816 50.4646 40.743C50.6118 40.8044 50.7452 40.8943 50.8572 41.0076C50.9692 41.1208 51.0576 41.2552 51.1171 41.4028C51.1766 41.5504 51.2061 41.7083 51.2039 41.8673V47.187ZM59.8025 49.9758C58.1985 51.9837 56.3951 54.2409 56.1603 60.3089H51.3725V50.8753C52.1277 50.5957 52.7792 50.0926 53.2398 49.4334C53.7003 48.7742 53.9478 47.9904 53.9492 47.187V41.8673C53.9532 41.3476 53.854 40.8322 53.6573 40.3509C53.4606 39.8695 53.1703 39.4318 52.8032 39.0628C52.4361 38.6939 51.9994 38.4011 51.5183 38.2013C51.0372 38.0015 50.5212 37.8986 50 37.8986C49.4788 37.8986 48.9628 38.0015 48.4817 38.2013C48.0006 38.4011 47.5639 38.6939 47.1968 39.0628C46.8297 39.4318 46.5394 39.8695 46.3427 40.3509C46.146 40.8322 46.0468 41.3476 46.0508 41.8673V47.187C46.0522 47.9904 46.2997 48.7742 46.7601 49.4333C47.2206 50.0925 47.8721 50.5956 48.6272 50.8753V60.3094H44.3263C44.0746 54.2859 42.1529 52.1518 40.4437 50.2547C38.9368 48.5804 37.7453 47.2584 37.7453 42.96C37.7383 41.3506 38.0502 39.7556 38.6629 38.2667C39.2756 36.7777 40.1772 35.4241 41.3158 34.2836C42.4545 33.1431 43.8078 32.2381 45.2981 31.6206C46.7883 31.003 48.3862 30.6852 50 30.6852C51.6138 30.6852 53.2117 31.003 54.7019 31.6206C56.1922 32.2381 57.5455 33.1431 58.6842 34.2836C59.8228 35.4241 60.7244 36.7777 61.3371 38.2667C61.9498 39.7556 62.2617 41.3506 62.2547 42.96C62.2547 46.9066 61.1719 48.2623 59.8025 49.9758ZM57.1663 65.6813C57.1663 66.0443 57.0217 66.3926 56.7642 66.6493C56.5068 66.906 56.1577 67.0503 55.7936 67.0503H44.2064C43.8423 67.0503 43.4932 66.906 43.2358 66.6493C42.9783 66.3926 42.8337 66.0443 42.8337 65.6813C42.8337 65.3182 42.9783 64.97 43.2358 64.7133C43.4932 64.4565 43.8423 64.3123 44.2064 64.3123H55.7936C56.1577 64.3123 56.5068 64.4565 56.7642 64.7133C57.0217 64.97 57.1663 65.3182 57.1663 65.6813ZM55.5683 69.631C55.5683 69.9941 55.4237 70.3423 55.1662 70.599C54.9088 70.8558 54.5597 71 54.1956 71H45.8046C45.4406 71 45.0914 70.8558 44.834 70.599C44.5766 70.3423 44.432 69.9941 44.432 69.631C44.432 69.2679 44.5766 68.9197 44.834 68.663C45.0914 68.4063 45.4406 68.262 45.8046 68.262H54.1956C54.5597 68.262 54.9088 68.4063 55.1662 68.663C55.4237 68.9197 55.5683 69.2679 55.5683 69.631Z" fill="#151618"/>
</g>
<defs>
<clipPath id="clip0_3390_49694">
<rect width="100" height="100" fill="white"/>
</clipPath>
</defs>
</svg>
