<svg width="270" height="80" viewBox="0 0 270 80" fill="none" xmlns="http://www.w3.org/2000/svg">
<path fill-rule="evenodd" clip-rule="evenodd" d="M94.7698 24.8902L93.8398 28.4502H97.2398C97.2398 28.4502 96.4698 31.7002 95.9998 34.1702C95.5398 36.0302 94.4498 40.6702 95.2298 42.3702C95.8498 43.6102 97.3998 44.3802 98.6298 44.3802C101.1 44.5302 104.2 44.5302 104.2 44.5302L104.97 39.8902H103.11C103.11 39.8902 101.41 40.0402 101.25 39.1202C100.79 37.2602 103.11 28.4502 103.11 28.4502H107.29L108.06 24.8902H103.88L105.12 19.1702C105.12 19.1702 101.87 19.0202 101.1 19.1702C100.02 19.3202 99.2398 20.5602 98.7798 21.6402C98.3198 23.0302 98.0098 24.8902 98.0098 24.8902H94.7598H94.7698Z" fill="white"/>
<path fill-rule="evenodd" clip-rule="evenodd" d="M105.59 44.53C105.59 44.53 106.21 40.97 107.91 38.65C110.23 35.56 115.95 33.08 117.66 32.15C120.91 30.76 122.92 28.75 122.92 26.89C122.92 25.65 121.84 23.8 119.36 23.8C117.04 23.8 115.03 25.81 114.72 28.44H108.53C108.53 28.44 109.46 23.64 112.24 21.48C114.56 19.78 116.26 19.16 119.36 19H120.44C123.69 19.15 126.47 20.39 127.87 22.56C129.26 24.88 129.73 28.75 127.56 31.22C125.55 33.39 123.54 34.62 121.84 35.55C119.36 36.94 116.27 38.64 115.34 38.95C114.57 39.41 114.72 39.88 114.72 39.88H124.93C126.48 39.88 127.25 39.26 127.25 39.26C127.25 39.26 128.02 41.43 126.94 42.82C126.63 43.28 125.55 44.52 123.54 44.52H105.59V44.53Z" fill="white"/>
<path fill-rule="evenodd" clip-rule="evenodd" d="M130.35 44.53L131.43 38.04H138.55L137.31 44.53H130.35Z" fill="white"/>
<path fill-rule="evenodd" clip-rule="evenodd" d="M161.13 37.2598C161.13 43.4498 155.1 44.9998 154.63 45.1498C153.39 45.4598 151.54 45.6098 149.68 45.6098C145.97 45.6098 141.33 42.3598 141.33 37.0998C141.33 29.6698 145.82 24.1098 153.71 24.2598C161.91 24.5698 162.06 30.9098 162.06 32.1498H155.72C155.72 31.6898 155.87 29.0598 152.63 29.0598C148.76 29.0598 147.37 32.6198 147.37 36.4898C147.37 39.4298 149.23 40.8198 151.55 40.8198C152.32 40.8198 152.79 40.6598 153.41 40.3598C154.96 39.2798 154.96 37.8798 154.96 37.2698H161.15L161.13 37.2598Z" fill="white"/>
<path fill-rule="evenodd" clip-rule="evenodd" d="M171.5 45.6201C166.24 45.6201 162.84 42.2201 162.84 37.2701C162.84 30.3101 167.79 24.5801 174.91 24.5801C180.32 24.5801 183.42 28.2901 183.42 32.7801C183.42 40.2101 178.47 45.6201 171.51 45.6201H171.5ZM172.27 40.9801C175.36 40.9801 177.22 36.3401 177.22 32.9401C177.22 30.9301 176.45 29.0701 174.13 29.0701C170.73 29.0701 169.02 34.0201 169.02 37.1101C169.02 39.4301 170.1 40.9801 172.11 40.9801H172.26H172.27Z" fill="white"/>
<path fill-rule="evenodd" clip-rule="evenodd" d="M183.869 44.8399L186.499 31.6899C187.119 29.2099 187.429 27.0499 187.579 25.3499H192.989L192.529 28.4399H192.679C194.539 25.9699 197.009 24.8799 199.799 24.8799C203.199 24.8799 204.599 26.8899 204.749 28.5899C206.609 25.9599 209.239 24.8799 212.019 24.8799C214.649 24.8799 216.509 26.2699 216.969 28.5899V31.9899C216.969 32.6099 216.809 33.0699 216.809 33.5399L214.489 44.8299H208.459L210.629 34.1599C210.779 33.3899 210.939 32.6099 210.939 31.8399C210.939 30.4499 210.319 29.5199 208.769 29.5199C206.759 29.5199 204.749 31.9999 203.969 36.0199L202.109 44.8399H196.229L198.399 34.1699C198.549 33.3999 198.549 32.6199 198.549 31.8499C198.549 30.6099 198.089 29.5299 196.689 29.5299C194.519 29.5299 192.359 32.1599 191.589 36.0299L189.889 44.8499H183.859L183.869 44.8399Z" fill="white"/>
<path fill-rule="evenodd" clip-rule="evenodd" d="M84.5602 24.73C81.4702 24.88 79.1502 25.35 76.5202 28.13C73.8902 31.07 73.2702 38.8 74.0402 40.35C74.8102 41.9 76.2102 44.99 83.0102 45.15C90.9002 45.46 92.9102 38.81 92.9102 38.81H86.5702C86.5702 38.81 86.5702 40.82 83.3202 40.98C78.6802 40.98 79.7602 36.34 79.7602 36.34H93.6802C93.6802 36.34 93.6802 36.03 93.9902 32.47C94.1402 28.45 90.5902 24.58 84.5502 24.74L84.5602 24.73ZM87.9602 32.46L80.0702 32.61C80.0702 32.61 80.6902 28.59 84.5602 28.59C88.1202 28.59 87.9602 32.46 87.9602 32.46Z" fill="white"/>
<path fill-rule="evenodd" clip-rule="evenodd" d="M72.18 19.1602C70.94 19.1602 69.55 19.4702 68.78 20.4002C67.85 21.3302 67.54 23.1802 67.23 24.4202C67.23 24.7302 67.23 25.0402 67.07 25.5002H68.46L71.24 21.6302H71.86L70.31 25.5002L73.56 25.6602L74.18 24.8902C74.95 21.6402 75.42 19.1702 75.42 19.1702H72.17L72.18 19.1602ZM70.32 26.5902L71.87 30.3002H71.25L68.47 26.5902H67.39C67.24 26.5902 67.08 26.5902 66.93 26.4402C66.62 27.9902 66.31 30.0002 66 32.1602C65.07 36.4902 65.23 39.4302 61.51 39.4302C60.27 39.4302 59.19 38.9702 59.19 38.0402C59.19 36.4902 59.5 33.8602 59.5 33.8602H53.16C53.16 33.8602 53 36.3302 53 39.1202C53 41.6002 55.63 44.8402 61.04 44.8402C65.22 44.8402 68 43.9102 70.32 40.5102C71.56 38.8102 72.18 34.7902 73.1 30.4502C73.26 29.2102 73.56 27.8202 73.87 26.5802L73.56 26.4302L70.31 26.5802L70.32 26.5902Z" fill="white"/>
<path fill-rule="evenodd" clip-rule="evenodd" d="M56.71 50.7198H53L53.46 47.7798H64.6L64.14 50.7198H60.42L58.88 61.2398H55.01L56.71 50.7198Z" fill="white"/>
<path fill-rule="evenodd" clip-rule="evenodd" d="M65.3692 47.7798H68.6192L67.8492 53.0398C68.9292 51.9598 69.8592 51.4898 70.9392 51.4898C72.3292 51.4898 73.2592 52.4198 73.2592 53.9698C73.2592 54.2798 73.0992 54.7398 73.0992 55.3598L72.0192 61.2398H68.7692L69.6992 55.6698C69.8492 55.2098 69.8492 54.8998 69.8492 54.7398C69.8492 54.2798 69.5392 53.9698 69.0792 53.9698C68.6192 53.9698 67.9992 54.4298 67.5292 55.2098L66.4492 61.2398H63.1992L65.3692 47.7798Z" fill="white"/>
<path fill-rule="evenodd" clip-rule="evenodd" d="M82.8491 59.0798C81.9191 60.6298 80.6791 61.3998 79.1391 61.5598H78.0591C75.5891 61.4098 74.0391 59.6998 74.0391 57.2298C74.0391 55.8398 74.3491 54.5998 75.1191 53.5198C76.0491 52.2798 77.4391 51.5098 78.9891 51.5098C81.6191 51.5098 83.1691 53.2098 83.1691 56.1498C83.1691 56.4598 83.1691 56.7698 83.0191 57.2298H77.2991V57.6898C77.2991 58.7698 77.9191 59.3898 78.8491 59.3898C79.6191 59.3898 80.2391 58.9298 80.8591 57.9998L82.8691 59.0798H82.8491ZM80.3791 55.2098C80.3791 54.1298 80.0691 53.5098 79.1391 53.5098C78.2091 53.5098 77.5891 54.1298 77.4391 55.5198H80.3791V55.2098Z" fill="white"/>
<path fill-rule="evenodd" clip-rule="evenodd" d="M89.5098 61.2398L91.5198 47.7798H94.9198L92.7498 61.2398H89.5098Z" fill="white"/>
<path fill-rule="evenodd" clip-rule="evenodd" d="M99.7191 51.4997C102.349 51.4997 104.049 53.1997 104.049 55.8297C104.049 59.2297 102.039 61.3997 99.0991 61.5497H98.6391C96.0091 61.5497 94.6191 59.9997 94.6191 57.3697C94.6191 53.8097 96.6291 51.4897 99.7291 51.4897L99.7191 51.4997ZM98.9491 59.3897C100.029 59.3897 100.809 57.8397 100.809 55.3697C100.809 54.2897 100.349 53.8197 99.7291 53.8197C98.6491 53.8197 97.8691 55.2097 97.8691 57.8397C97.8691 58.9197 98.3291 59.3897 98.9491 59.3897Z" fill="white"/>
<path fill-rule="evenodd" clip-rule="evenodd" d="M104.668 51.8101H107.918L108.538 55.2101C108.538 55.6701 108.538 56.1401 108.688 56.9101C108.838 56.2901 108.998 55.8301 109.148 55.2101L110.848 51.8101H113.168L113.628 55.0601C113.628 55.6801 113.778 56.1401 113.778 56.9201C113.928 56.3001 114.088 55.8401 114.398 55.2201L115.948 51.8201H118.578L113.778 61.2601H111.608L110.988 57.8601V56.3101C110.838 56.7701 110.528 57.2401 110.368 57.8601L108.668 61.2601H106.348L104.648 51.8201L104.668 51.8101Z" fill="white"/>
<path fill-rule="evenodd" clip-rule="evenodd" d="M132.82 58.2997C132.2 60.3097 130.81 61.5497 128.64 61.5497H128.18C125.7 61.5497 124 59.6897 124 57.0597C124 55.6697 124.46 54.4297 125.08 53.4997C126.16 52.2597 127.56 51.4897 129.1 51.4897C131.42 51.4897 132.81 52.8797 133.12 54.8897L130.18 55.1997C130.18 54.2697 129.87 53.8097 129.25 53.8097C128.17 53.8097 127.39 55.1997 127.39 57.6797C127.39 58.9197 127.85 59.3797 128.78 59.3797C129.55 59.3797 130.17 58.9197 130.64 57.8297L132.81 58.2897L132.82 58.2997Z" fill="white"/>
<path fill-rule="evenodd" clip-rule="evenodd" d="M138.86 51.4997C141.49 51.4997 143.19 53.1997 143.19 55.8297C143.19 59.2297 141.18 61.3997 138.24 61.5497H137.78C135.15 61.5497 133.76 59.9997 133.76 57.3697C133.76 53.8097 135.77 51.4897 138.87 51.4897L138.86 51.4997ZM138.09 59.3897C139.17 59.3897 139.95 57.8397 139.95 55.3697C139.95 54.2897 139.49 53.8197 138.71 53.8197C137.78 53.8197 137.01 55.2097 137.01 57.8397C137.01 58.9197 137.32 59.3897 138.09 59.3897Z" fill="white"/>
<path fill-rule="evenodd" clip-rule="evenodd" d="M145.2 57.9898C145.82 59.0698 146.59 59.5398 147.68 59.5398C148.45 59.5398 148.92 59.2298 148.92 58.7698C148.92 58.6198 148.77 58.4598 148.61 58.3098C148.3 57.9998 147.53 57.8498 146.6 57.5398C145.21 57.0798 144.43 55.9898 144.43 54.7598C144.43 53.0598 146.13 51.5098 148.45 51.5098C150 51.5098 151.39 52.2798 152.47 53.6798L150.61 55.0698C149.68 54.1398 148.91 53.6798 148.13 53.6798C147.51 53.6798 147.2 53.8298 147.2 54.2998C147.2 54.9198 148.13 55.0698 149.21 55.3798C151.07 55.9998 151.99 56.7698 151.99 58.3198C151.99 60.1798 150.44 61.5698 147.97 61.5698H147.35C145.49 61.5698 144.1 60.7998 143.02 59.3998L145.19 58.0098L145.2 57.9898Z" fill="white"/>
<path fill-rule="evenodd" clip-rule="evenodd" d="M156.65 58.2999C156.65 58.9199 156.96 59.2299 157.73 59.2299C157.88 59.2299 158.19 59.2299 158.5 59.0799L158.19 61.3999C157.57 61.5499 157.11 61.5499 156.64 61.5499H155.56C154.01 61.3999 153.24 60.7799 153.24 59.5399C153.24 59.2299 153.24 58.9199 153.39 58.6099L154.16 53.9699H152.77L153.08 51.7999H154.47L155.4 48.3999H158.18L157.72 51.7999H159.11L158.8 53.9699H157.41L156.79 57.8399C156.79 57.9899 156.64 58.1499 156.64 58.2999H156.65Z" fill="white"/>
<path fill-rule="evenodd" clip-rule="evenodd" d="M169.949 61.24V60.47C169.019 61.24 168.089 61.55 167.169 61.55C165.619 61.55 164.539 60.47 164.539 58.92C164.539 56.75 166.549 55.52 170.419 55.52H170.569C170.729 55.06 170.729 54.9 170.729 54.75C170.729 54.13 170.419 53.82 169.799 53.82C169.179 53.82 168.719 54.13 168.249 54.9L165.469 54.28C166.239 52.42 167.789 51.5 169.959 51.5C172.429 51.5 173.979 52.58 173.979 54.13C173.979 54.44 173.829 54.9 173.829 55.52L173.209 58.77V61.25H169.959L169.949 61.24ZM169.799 57.06C168.559 57.06 167.629 57.68 167.629 58.76C167.629 59.22 168.089 59.53 168.709 59.53C169.169 59.53 169.639 59.38 170.099 58.91L170.409 57.05H169.789L169.799 57.06Z" fill="white"/>
<path fill-rule="evenodd" clip-rule="evenodd" d="M174.439 61.24L175.989 51.8H179.239L177.689 61.24H174.439ZM176.139 50.57L176.599 47.79H179.849L179.389 50.57H176.139Z" fill="white"/>
<path fill-rule="evenodd" clip-rule="evenodd" d="M180.929 51.8098H184.179L183.869 53.3598C184.639 52.2798 185.569 51.8098 186.649 51.8098H186.959L186.339 55.2098C185.719 54.8998 185.259 54.8998 184.949 54.8998C184.489 54.8998 184.019 55.0598 183.559 55.3598L182.629 61.2398H179.379L180.929 51.7998V51.8098Z" fill="white"/>
<path fill-rule="evenodd" clip-rule="evenodd" d="M186.35 61.2398L188.51 47.7798H191.76L189.75 61.2398H186.35Z" fill="white"/>
<path fill-rule="evenodd" clip-rule="evenodd" d="M191.299 61.24L192.849 51.8H196.099L194.549 61.24H191.299ZM192.999 50.57L193.459 47.79H196.709L196.249 50.57H192.999Z" fill="white"/>
<path fill-rule="evenodd" clip-rule="evenodd" d="M197.64 51.81H200.89L200.74 53.05C201.67 51.97 202.75 51.5 203.83 51.5C205.22 51.5 206.15 52.43 206.15 53.98C206.15 54.29 206 54.75 205.84 55.37L204.91 61.25H201.66L202.59 55.68C202.74 55.22 202.74 54.91 202.74 54.75C202.74 54.29 202.43 53.98 201.97 53.98C201.51 53.98 200.89 54.44 200.42 55.22L199.34 61.25H196.09L197.64 51.81Z" fill="white"/>
<path fill-rule="evenodd" clip-rule="evenodd" d="M215.74 59.0798C214.66 60.6298 213.57 61.3998 211.87 61.5598H210.94C208.46 61.4098 206.92 59.6998 206.92 57.2298C206.92 55.8398 207.23 54.5998 208 53.5198C208.93 52.2798 210.17 51.5098 211.87 51.5098C214.5 51.5098 216.05 53.2098 216.05 56.1498C216.05 56.4598 215.9 56.7698 215.9 57.2298H210.18V57.6898C210.18 58.7698 210.8 59.3898 211.73 59.3898C212.5 59.3898 213.12 58.9298 213.74 57.9998L215.75 59.0798H215.74ZM213.27 55.2098C213.27 54.1298 212.96 53.5098 212.03 53.5098C211.1 53.5098 210.48 54.1298 210.33 55.5198H213.27V55.2098Z" fill="white"/>
<path fill-rule="evenodd" clip-rule="evenodd" d="M129.879 19.6298H129.109V19.3198H130.809V19.6298H130.189V21.6398H129.879V19.6298Z" fill="white"/>
<path fill-rule="evenodd" clip-rule="evenodd" d="M133.129 20.7098C132.979 20.2498 132.979 19.9398 132.979 19.6298C132.979 19.9398 132.829 20.2498 132.669 20.5598L132.359 21.6398H132.049L131.739 20.5598C131.589 20.2498 131.429 19.9398 131.429 19.6298V20.7098L131.279 21.6398H130.969L131.119 19.3198H131.579L131.889 20.3998C132.039 20.7098 132.199 21.0198 132.199 21.3298C132.199 21.0198 132.349 20.7098 132.509 20.3998L132.819 19.3198H133.279L133.429 21.6398H133.119V20.7098H133.129Z" fill="white"/>
</svg>
