<svg width="270" height="80" viewBox="0 0 270 80" fill="none" xmlns="http://www.w3.org/2000/svg">
<path d="M77.1426 35.8351L70.3443 44.8971H69.5687L62.9197 35.805V50.9787H58.9834V30.1118H63.5159L70.046 39.0846L76.5761 30.1118H81.0785V50.9787H77.1426V35.8351Z" fill="white"/>
<path d="M122.709 30.0527H126.645V50.9487H124.2V50.9788L113.227 36.8788V50.9487H109.291V30.0819H112.481L122.709 43.0191V30.0527Z" fill="white"/>
<path d="M139.828 38.6969L145.375 30.0815H150.116V30.2609L141.797 42.3339V50.9484H137.86V42.3339L129.839 30.2609V30.0815H134.52L139.828 38.6969Z" fill="white"/>
<path d="M162.841 32.2485V49.4583H168.118C174.115 49.4583 176.885 44.9611 176.798 40.6371C176.711 36.4284 173.943 32.2485 168.118 32.2485H162.841ZM178.354 40.6371C178.47 45.7678 175.183 50.9586 168.118 50.9586H161.284V30.7783H168.117C174.952 30.7783 178.239 35.6792 178.354 40.6371Z" fill="white"/>
<path d="M184.18 30.7783H182.652V50.9586H184.18V30.7783Z" fill="white"/>
<path d="M204.943 34.4968C203.183 32.7675 200.733 31.9025 198.455 31.9025C192.544 31.9025 189.517 36.2269 189.545 40.8966C189.545 45.6529 192.573 49.7466 198.455 49.7466C200.618 49.7466 202.867 48.9969 204.597 47.4118V41.7621H197.563V40.4064H206.068V47.959C203.963 50.0636 201.454 51.2164 198.456 51.2164C191.593 51.2164 188.046 46.4309 188.046 40.9249C188.018 34.6122 192.313 30.4897 198.456 30.4897C201.109 30.4897 203.791 31.4985 205.837 33.5164L204.943 34.4968Z" fill="white"/>
<path d="M212.268 30.7783H210.74V50.9586H212.268V30.7783Z" fill="white"/>
<path d="M223.803 32.1916H216.508V30.8071H232.656V32.1916H225.36V50.9582H223.803V32.1916Z" fill="white"/>
<path d="M244.712 30.7778H243.009L233.955 50.9581H235.627L237.819 45.9989H247.928L247.311 44.5579H238.424L243.845 32.2777L249.267 44.5579L249.872 45.9989L252.093 50.9581H253.766L244.712 30.7778Z" fill="white"/>
<path d="M258.638 30.7778V49.487H270V50.9581H257.082V30.7778H258.638Z" fill="white"/>
<path d="M36.8598 29.4291L31.9079 36.1698L25.0747 45.2775H24.2234L17.9968 36.7641V29.6207L24.7472 38.8965L31.9166 29.0451H36.8598V29.4291ZM36.8598 51.9555H32.5385V37.1102L36.8598 31.2276V51.9555ZM16.9316 35.3082L16.9233 35.2965V51.9547H12.602V29.0455H16.9316V35.3082ZM46.072 24.2692L28.1209 13.9081C26.0232 12.6973 23.4386 12.6973 21.3409 13.9081L3.38981 24.2692C1.29208 25.4799 0 27.7177 0 30.1392V50.861C0 53.283 1.29208 55.5207 3.38981 56.7306L21.3409 67.0926C23.4386 68.3025 26.0232 68.3025 28.1209 67.0926L46.072 56.7306C48.1698 55.5207 49.4618 53.2825 49.4618 50.861V30.1392C49.4618 27.7181 48.1698 25.4799 46.072 24.2692Z" fill="white"/>
<path d="M97.065 30.0815H92.7711L83.4082 50.9484H87.672L89.4614 47.0132H97.9895L96.4209 43.347H91.0414L94.918 34.4639L98.7943 43.347H98.806L100.375 47.0132L102.134 50.9484H106.427L97.065 30.0815Z" fill="white"/>
</svg>
