<svg width="270" height="80" viewBox="0 0 270 80" fill="none" xmlns="http://www.w3.org/2000/svg">
<path d="M49.2154 36.375H53.7633C56.4921 36.375 58.9177 35.775 58.9177 32.4375C58.9177 29.1 56.4921 28.5 53.7633 28.5H49.2154V36.375ZM43.3789 24H55.3551C61.9875 24 64.5647 28.1625 64.5647 32.4375C64.5647 36.7125 61.9875 40.875 55.3551 40.875H49.2154V50.2875H43.3789V24Z" fill="white"/>
<path d="M65.9668 25.4625L71.2348 24V33.9H71.3485C72.5613 31.9875 74.6837 30.7875 76.9576 30.75C82.5667 30.75 84.0069 33.8625 84.0069 38.5875V50.2875H78.7389V39.525C78.7389 36.375 77.7914 34.8375 75.3659 34.8375C72.4855 34.8375 71.2727 36.4125 71.2727 40.275V50.25H66.0047V25.4625H65.9668Z" fill="white"/>
<path d="M98.3326 40.9875C97.4231 41.775 95.566 41.8125 93.9363 42.075C92.3066 42.375 90.8286 42.975 90.8286 44.8875C90.8286 46.8 92.3445 47.325 94.05 47.325C98.1811 47.325 98.3326 44.1 98.3326 42.9375V40.9875ZM86.129 37.125C86.4322 32.2125 90.8665 30.75 95.187 30.75C99.0148 30.75 103.639 31.6125 103.639 36.15V46.05C103.639 47.775 103.828 49.5 104.321 50.2875H98.9769C98.7874 49.6875 98.6358 49.0875 98.5979 48.45C96.9304 50.175 94.4669 50.8125 92.1171 50.8125C88.4788 50.8125 85.5605 49.0125 85.5605 45.1125C85.5605 40.8 88.8199 39.7875 92.1171 39.3375C95.3765 38.8875 98.3705 38.9625 98.3705 36.825C98.3705 34.575 96.8167 34.2375 94.9596 34.2375C92.9509 34.2375 91.6624 35.0625 91.4729 37.125H86.129Z" fill="white"/>
<path d="M106.026 32.7375L111.067 31.275V34.8H111.143C112.204 32.3625 114.63 30.7875 117.282 30.75C117.661 30.75 118.04 30.825 118.419 30.9375V35.8125C117.813 35.7 117.169 35.625 116.524 35.625C112.659 35.625 111.294 38.4 111.294 41.7375V50.325H106.026V32.7375Z" fill="white"/>
<path d="M120.504 31.2374H125.507V33.8249H125.582C126.871 31.8749 129.107 30.7124 131.457 30.7124C133.882 30.7124 136.043 31.6124 137.066 33.8999C138.355 31.9499 140.515 30.7499 142.865 30.7124C146.958 30.7124 149.914 32.5874 149.914 37.5374V50.2874H144.646V39.4874C144.646 36.9374 144.418 34.8374 141.424 34.8374C138.43 34.8374 137.9 37.2749 137.9 39.6749V50.2874H132.632V39.5999C132.632 37.3874 132.783 34.8374 129.41 34.8374C128.349 34.8374 125.848 35.5124 125.848 39.2249V50.2874H120.58V31.2374H120.504Z" fill="white"/>
<path d="M164.353 40.9875C163.444 41.775 161.587 41.8125 159.957 42.075C158.327 42.3375 156.849 42.975 156.849 44.8875C156.849 46.8 158.365 47.325 160.071 47.325C164.202 47.325 164.353 44.1 164.353 42.9375V40.9875ZM152.15 37.125C152.453 32.2125 156.887 30.75 161.208 30.75C165.035 30.75 169.659 31.6125 169.659 36.15V46.05C169.659 47.775 169.849 49.5 170.341 50.2875H164.997C164.808 49.6875 164.656 49.0875 164.618 48.45C162.951 50.175 160.487 50.8125 158.138 50.8125C154.499 50.8125 151.581 49.0125 151.581 45.1125C151.581 40.8 154.84 39.7875 158.138 39.3375C161.435 38.8875 164.391 38.9625 164.391 36.825C164.391 34.575 162.837 34.2375 160.98 34.2375C158.971 34.2375 157.683 35.0625 157.493 37.125H152.15Z" fill="white"/>
<path d="M185.16 37.95C184.819 35.8125 183.455 34.6875 181.256 34.6875C177.883 34.6875 176.746 38.0625 176.746 40.875C176.746 43.6125 177.845 46.875 181.143 46.875C183.606 46.875 185.008 45.3375 185.35 43.0125H190.428C189.746 48.0375 186.221 50.8125 181.143 50.8125C175.344 50.8125 171.44 46.7625 171.44 41.0625C171.44 35.1375 175.003 30.75 181.256 30.75C185.804 30.75 189.973 33.1125 190.314 37.95H185.16Z" fill="white"/>
<path d="M201.229 52.6874C200.092 55.7249 198.273 56.9999 194.597 56.9999C193.498 56.9999 192.437 56.9249 191.376 56.8124V52.4999C192.399 52.6124 193.422 52.6874 194.483 52.6874C196.303 52.4999 196.909 50.6249 196.303 49.1249L189.519 31.2749H195.166L199.524 44.3249H199.6L203.807 31.2749H209.264L201.229 52.6874Z" fill="white"/>
<path d="M210.249 34.425C210.059 28.5375 213.433 24 219.686 24C224.461 24 228.63 27 228.63 32.0625C228.63 35.925 226.546 38.0625 223.969 39.8625C221.391 41.6625 218.359 43.125 216.464 45.7875H228.782V50.2875H209.643C209.68 44.325 213.357 41.775 217.867 38.7375C220.179 37.2 223.286 35.625 223.324 32.4375C223.324 30 221.695 28.4625 219.421 28.4625C216.275 28.4625 215.29 31.65 215.29 34.3875L210.249 34.425Z" fill="white"/>
<path d="M253.001 40.35C253.001 47.475 248.756 50.925 241.631 50.925C234.506 50.925 230.299 47.5125 230.299 40.35V25.4625L236.135 24V40.35C236.135 43.2375 236.893 46.05 241.593 46.05C245.762 46.05 247.088 44.25 247.088 40.35V25.4625L252.925 24V40.35H253.001Z" fill="white"/>
<path d="M23.8598 24H17V30.7875H23.8598V24Z" fill="white"/>
<path d="M36.3285 24H29.4688V30.7875H36.3285V24Z" fill="white"/>
<path d="M23.8598 36.375H17V43.1625H23.8598V36.375Z" fill="white"/>
<path d="M36.3285 36.375H29.4688V43.1625H36.3285V36.375Z" fill="white"/>
</svg>
