<svg width="270" height="80" viewBox="0 0 270 80" fill="none" xmlns="http://www.w3.org/2000/svg">
<g clip-path="url(#clip0_2478_47998)">
<path d="M68.3701 25.6401H58.8301V54.8101H66.0001V45.6701H69.2001C73.7301 45.6701 75.7001 44.8401 77.7201 43.1501C79.5701 41.5701 80.7901 38.4601 80.7901 35.5001C80.8233 34.0385 80.533 32.5876 79.9401 31.2513C79.3471 29.9149 78.4661 28.7262 77.3601 27.7701C75.7901 26.4701 73.7701 25.6401 68.3601 25.6401M66.0001 39.1201V32.1801H68.7601C70.3801 32.1801 73.6901 32.1801 73.6901 35.6101C73.6901 39.0401 70.4201 39.1201 69.0001 39.1201H66.0001ZM100.58 25.6401H94.0401V32.9301H90.8001V38.5701H94.0401V54.8101H100.58V38.5701H103.74V32.9301H100.58V25.6401ZM115.88 32.1801C114.354 32.172 112.842 32.4679 111.432 33.0505C110.022 33.6331 108.742 34.4907 107.667 35.5734C106.591 36.656 105.743 37.9419 105.17 39.3561C104.597 40.7703 104.311 42.2844 104.33 43.8101C104.341 46.6852 105.405 49.4567 107.322 51.5998C109.238 53.743 111.874 55.1089 114.73 55.4391C117.587 55.7694 120.465 55.0409 122.82 53.3917C125.175 51.7425 126.844 49.287 127.51 46.4901H120.85C120.439 47.3902 119.77 48.1482 118.928 48.668C118.086 49.1878 117.109 49.4461 116.12 49.4101C113 49.4101 110.91 47.0501 110.91 43.8501C110.91 40.6501 112.91 38.2801 115.84 38.2801H116.11C117.12 38.2431 118.116 38.5193 118.963 39.0706C119.81 39.622 120.465 40.4217 120.84 41.3601H127.46C126.902 38.7206 125.439 36.3589 123.325 34.6829C121.21 33.0069 118.577 32.1217 115.88 32.1801ZM135.63 25.6401H129.09V54.8101H135.63V42.6701C135.63 41.6001 135.63 38.3301 139.3 38.3301C142.81 38.3301 142.81 41.8401 142.81 42.9001V54.8101H149.36V42.5901C149.36 38.6901 149.16 36.7601 147.31 34.5901C146.532 33.7948 145.596 33.1706 144.563 32.7573C143.53 32.3441 142.422 32.1509 141.31 32.1901C138.98 32.1901 136.78 32.9801 135.67 34.9501H135.59L135.63 25.6401ZM173.22 48.0001C172.295 50.2521 170.748 52.1944 168.76 53.6001C166.945 54.9052 164.765 55.605 162.53 55.6001C159.435 55.616 156.46 54.4018 154.261 52.2245C152.061 50.0472 150.816 47.0852 150.8 43.9901C150.784 40.895 151.998 37.9204 154.176 35.7206C156.353 33.5208 159.315 32.276 162.41 32.2601C169.07 32.2601 173.96 37.5401 173.96 44.2101C173.964 44.7939 173.91 45.3768 173.8 45.9501H157.41C157.619 47.1353 158.256 48.2026 159.2 48.9492C160.143 49.6959 161.329 50.0698 162.53 50.0001C163.316 50.0243 164.095 49.849 164.794 49.4905C165.494 49.132 166.091 48.602 166.53 47.9501L173.22 48.0001ZM167.43 41.4901C167.121 40.4107 166.469 39.4614 165.572 38.7855C164.675 38.1097 163.583 37.7442 162.46 37.7442C161.337 37.7442 160.245 38.1097 159.348 38.7855C158.452 39.4614 157.799 40.4107 157.49 41.4901H167.43ZM175.52 32.9301H181.67V35.2601H181.75C182.3 34.2001 183.45 32.1801 187.23 32.1801V38.7601C184.23 38.8401 182.06 39.4701 182.06 42.7601V54.7601H175.52V32.9301ZM196.47 54.4101V53.8801C196.47 53.6801 196.47 53.5101 196.41 53.3301C196.316 52.7718 196.272 52.2062 196.28 51.6401C196.28 51.4401 196.37 51.2501 196.38 51.0301C196.38 50.6401 196.22 50.2701 196.22 49.8501C196.234 49.6904 196.234 49.5298 196.22 49.3701C196.173 49.2036 196.116 49.0399 196.05 48.8801C195.95 48.5501 195.85 48.2101 195.76 47.8801C195.76 47.7001 195.7 47.5201 195.65 47.3401C195.6 47.1601 195.59 47.1701 195.58 47.0701C195.57 46.9701 195.58 46.9301 195.58 46.8801C195.555 46.8097 195.521 46.7425 195.48 46.6801C195.01 45.8501 194.77 44.8701 194.27 44.0601C194.179 43.9483 194.105 43.8236 194.05 43.6901C194.044 43.5969 194.044 43.5033 194.05 43.4101C194.013 43.1347 194.013 42.8555 194.05 42.5801C194.13 42.0301 194.18 41.4701 194.3 40.9301C194.488 40.2133 194.729 39.5114 195.02 38.8301C195.158 38.483 195.278 38.1292 195.38 37.7701C195.38 37.6401 195.38 37.5101 195.45 37.3801C195.52 37.2501 195.53 37.2201 195.57 37.1301C195.707 36.8774 195.82 36.613 195.91 36.3401C195.949 36.1399 196.003 35.9427 196.07 35.7501C196.14 35.5701 196.25 35.4201 196.31 35.2501C196.37 35.0801 196.4 34.7201 196.65 34.7101C196.709 34.6982 196.771 34.6982 196.83 34.7101C196.93 34.7101 197.04 34.8001 197.16 34.8101C197.31 34.7958 197.46 34.7958 197.61 34.8101L197.72 34.8701C197.84 34.8701 198.03 34.8701 198.16 34.9301C198.29 34.9901 198.26 35.0101 198.31 35.0301C198.36 35.0501 198.45 35.0301 198.49 35.0301C198.536 35.0741 198.568 35.1314 198.581 35.194C198.593 35.2567 198.586 35.3217 198.56 35.3801C198.56 35.3801 198.67 35.3801 198.71 35.4501C198.75 35.5201 198.71 35.5701 198.8 35.6601C198.89 35.7501 199.03 35.8601 199.03 36.0401C199.03 36.2201 198.83 36.3601 198.71 36.4601C198.592 36.5858 198.465 36.7028 198.33 36.8101C198.24 36.8601 198.09 36.8901 197.97 36.9501C197.85 37.0101 197.76 37.0901 197.65 37.1301C197.54 37.1701 197.46 37.1301 197.38 37.2001C197.129 37.3438 196.946 37.5812 196.87 37.8601C196.632 38.5357 196.501 39.2441 196.48 39.9601C196.42 40.7301 196.41 41.5101 196.32 42.2801C196.244 42.6077 196.221 42.9452 196.25 43.2801C196.25 43.3701 196.5 43.5101 196.58 43.5701C196.791 43.7234 196.982 43.9013 197.15 44.1001C197.27 44.2301 197.37 44.4401 197.54 44.5101C197.71 44.5801 197.71 44.6901 197.81 44.8201C197.91 44.9501 197.95 45.0301 198.02 45.0601C198.364 45.2397 198.669 45.4842 198.92 45.7801C199.04 45.9101 199.19 46.0001 199.31 46.1301C199.43 46.2601 199.59 46.5901 199.76 46.5601C199.93 46.5301 200.1 46.2101 200.05 45.9801C200 45.7501 199.95 45.7401 199.93 45.6501C199.935 45.5735 199.935 45.4967 199.93 45.4201C199.93 45.4201 199.85 45.3501 199.82 45.3101C199.743 45.1933 199.695 45.0595 199.68 44.9201C199.68 44.7201 199.54 44.3301 199.68 44.1501C199.82 43.9701 199.81 44.1501 199.83 44.1001C199.835 44.0235 199.835 43.9467 199.83 43.8701C199.831 43.6582 199.855 43.447 199.9 43.2401C200.007 42.6691 200.334 42.1629 200.81 41.8301C201.079 41.7037 201.371 41.6324 201.668 41.6203C201.965 41.6083 202.262 41.6558 202.54 41.7601C202.948 41.9152 203.287 42.2111 203.496 42.5944C203.705 42.9776 203.771 43.423 203.68 43.8501C203.665 43.9696 203.665 44.0906 203.68 44.2101C203.68 44.2801 203.79 44.2901 203.81 44.3801C203.838 44.4951 203.838 44.6151 203.81 44.7301C203.74 45.0201 203.7 45.4301 203.51 45.5901C203.32 45.7501 203.34 45.6701 203.29 45.7401C203.244 45.8674 203.208 45.9977 203.18 46.1301C203.06 46.4301 202.84 46.5101 202.79 46.6301C202.74 46.7501 202.64 47.1901 202.53 47.4601C202.53 47.5301 202.41 47.6701 202.42 47.7201C202.43 47.7701 202.76 47.8901 202.83 47.9201C203.113 48.0159 203.367 48.1809 203.57 48.4001C203.732 48.5478 203.841 48.7445 203.88 48.9601C203.918 49.3452 203.891 49.7339 203.8 50.1101C203.766 50.2273 203.746 50.3481 203.74 50.4701C203.781 50.683 203.835 50.8933 203.9 51.1001C203.952 51.3398 203.976 51.5848 203.97 51.8301C203.962 52.0678 203.921 52.3032 203.85 52.5301C203.8 52.7101 203.66 52.8701 203.61 53.0501C203.561 53.1975 203.521 53.3478 203.49 53.5001C203.495 53.7777 203.515 54.0548 203.55 54.3301C203.55 54.5901 203.4 54.7801 203.43 55.0401C203.428 55.0667 203.428 55.0935 203.43 55.1201C206.115 54.2162 208.386 52.3762 209.827 49.9363C211.267 47.4964 211.782 44.6196 211.276 41.8316C210.771 39.0436 209.279 36.5306 207.074 34.7518C204.868 32.973 202.096 32.0471 199.264 32.1435C196.433 32.2398 193.73 33.3519 191.651 35.2765C189.571 37.2012 188.254 39.8098 187.939 42.6257C187.624 45.4416 188.333 48.2767 189.936 50.613C191.539 52.9493 193.929 54.6308 196.67 55.3501C196.666 55.1758 196.649 55.002 196.62 54.8301C196.579 54.6865 196.552 54.5391 196.54 54.3901M82.5201 32.9301H89.0701V54.8101H82.5201V32.9301ZM89.0701 28.1201C89.0701 28.7668 88.8783 29.3991 88.519 29.9368C88.1597 30.4746 87.649 30.8937 87.0515 31.1412C86.4539 31.3887 85.7965 31.4534 85.1621 31.3273C84.5278 31.2011 83.9452 30.8897 83.4878 30.4323C83.0305 29.975 82.7191 29.3924 82.5929 28.758C82.4667 28.1237 82.5315 27.4662 82.779 26.8687C83.0265 26.2712 83.4456 25.7605 83.9834 25.4012C84.5211 25.0419 85.1533 24.8501 85.8001 24.8501C86.6673 24.8501 87.4991 25.1946 88.1123 25.8079C88.7256 26.4211 89.0701 27.2528 89.0701 28.1201Z" fill="white"/>
</g>
<defs>
<clipPath id="clip0_2478_47998">
<rect width="154" height="32" fill="white" transform="translate(58 24)"/>
</clipPath>
</defs>
</svg>
