<svg width="270" height="80" viewBox="0 0 270 80" fill="none" xmlns="http://www.w3.org/2000/svg">
<path d="M97.6206 52.1843L92.4572 54.1596L88.6362 49.8349C86.5295 50.8121 84.0923 51.3527 81.4486 51.3527C72.5675 51.3527 66 45.323 66 35.9039C66 26.4643 72.5679 20.4764 81.4486 20.4764C90.3294 20.4764 96.8973 26.4645 96.8973 35.9039C96.8973 40.3742 95.4309 44.0752 92.9318 46.7368L97.6206 52.1843ZM72.1751 35.9042C72.1751 42.3082 76.2026 45.926 81.4486 45.926C86.6947 45.926 90.7222 42.3083 90.7222 35.9042C90.7222 29.833 86.6947 26.2151 81.4486 26.2151C76.2026 26.2151 72.1751 29.8329 72.1751 35.9042ZM125.968 29.5627H132.123L124.688 50.9581H119.173L114.258 36.84L109.301 50.9581H103.704L96.4128 29.5627H102.547L106.926 43.4721L111.944 29.5627H116.509L121.507 43.4306L125.968 29.5627ZM135.582 26.3605C133.703 26.3605 132.133 24.8219 132.133 22.909C132.133 21.017 133.703 19.4783 135.582 19.4783C137.421 19.4783 138.99 21.0169 138.99 22.909C138.99 24.8219 137.421 26.3605 135.582 26.3605ZM132.546 50.9368V29.5627H138.536V50.9368H132.546ZM155.895 50.9368L149.058 41.9546H147.819V50.9368H141.809V19.0002H147.819V37.796H148.935L155.606 29.5623H162.339L153.974 39.4801L163.124 50.9368H155.895ZM166.315 26.3605C164.436 26.3605 162.866 24.8219 162.866 22.909C162.866 21.017 164.436 19.4783 166.315 19.4783C168.153 19.4783 169.723 21.0169 169.723 22.909C169.723 24.8219 168.153 26.3605 166.315 26.3605ZM163.279 50.9368V29.5627H169.269V50.9368H163.279ZM184.521 23.7822C182.559 23.7822 179.957 23.699 179.957 27.2753V29.5624H184.521V34.1574H179.957V50.9369H174.029V34.1574H169.878V29.5624H174.029V27.2544C174.029 20.0396 178.366 19 184.521 19V23.7822ZM198.907 29.5627H205L191.905 61H185.874L190.728 50.0639L181.991 29.5627H188.477L193.537 43.618L198.907 29.5627Z" fill="white"/>
</svg>
