<svg width="270" height="80" viewBox="0 0 270 80" fill="none" xmlns="http://www.w3.org/2000/svg">
<path fill-rule="evenodd" clip-rule="evenodd" d="M128.188 12.3016C128.188 11.3814 127.583 11 126.82 11H122.032C120.125 11 118.769 11.9505 118.769 14.2812V55.3625C118.769 56.2766 119.374 56.664 120.137 56.664H124.919C126.832 56.664 128.182 55.7136 128.182 53.3768V12.3016H128.188Z" fill="white"/>
<path fill-rule="evenodd" clip-rule="evenodd" d="M182.619 27.3213C182.807 26.9217 183.001 26.5464 183.001 26.1589C183.001 25.384 182.438 25.0026 181.663 25.0026H175.845C174.683 25.0026 174.156 25.4143 173.732 26.3587L165.529 44.5686L154.081 26.5403C153.373 25.4264 152.628 24.9966 150.933 24.9966H144.02C142.579 24.9966 141.816 25.378 140.957 26.2921L128.776 39.3805L139.704 55.3021C140.333 56.2162 140.866 56.6521 141.816 56.6521H148.324C149.299 56.6521 149.868 56.2646 149.868 55.4473C149.868 54.9449 149.626 54.618 149.299 54.1518L139.704 39.9435L146.986 32.0977L161.37 53.3648L155.014 66.8104C154.838 67.2039 154.638 67.5913 154.638 67.9667C154.638 68.7415 155.201 69.1169 155.982 69.1169H161.752C162.926 69.1169 163.428 68.7113 163.864 67.7669L182.625 27.3091L182.619 27.3213Z" fill="white"/>
<path fill-rule="evenodd" clip-rule="evenodd" d="M97.7142 35.9478C95.8072 35.524 95.2139 34.9852 95.2139 34.0105C95.2139 33.2659 95.8072 32.6726 97.5325 32.6726H111.499C113.823 32.6726 114.768 31.3166 114.768 29.4096V26.3767C114.768 25.6139 114.386 25.0024 113.478 25.0024H97.1148C89.826 25.0024 86 29.222 86 34.6038C86 39.3863 88.9422 42.2982 94.8204 43.6119L104.204 45.7126C106.111 46.1424 106.71 46.6812 106.71 47.6498C106.71 48.4005 106.117 48.9938 104.392 48.9938H89.8381C87.5074 48.9938 86.563 50.3438 86.563 52.2507V55.2897C86.563 56.0525 86.9444 56.664 87.8585 56.664H103.822C112.443 56.664 115.924 52.4384 115.924 47.444C115.924 42.4496 112.94 39.3682 107.098 38.0605L97.7142 35.9599V35.9478Z" fill="white"/>
</svg>
