<svg width="270" height="80" viewBox="0 0 270 80" fill="none" xmlns="http://www.w3.org/2000/svg">
<g clip-path="url(#clip0_2478_48121)">
<path d="M125.371 44.3969C124.654 46.4401 123.871 48.8893 122.876 49.7079C121.311 50.9924 120.136 50.826 120.269 48.9159C120.402 47.0391 121.636 43.4452 122.644 40.6699L122.969 39.7914C124.561 35.5785 125.231 34.121 125.775 33.7683C126.538 33.1959 125.881 31.4921 124.037 30.7733C121.914 29.9481 120.561 31.146 119.924 31.7983C119.884 31.8382 119.844 31.8914 119.805 31.938C119.261 30.6203 118.325 29.369 116.706 29.0895C113.602 28.5571 111.731 29.5953 109.362 31.6252C108.221 32.6036 105.587 34.9329 103.232 39.1658C103.1 39.3921 102.821 39.9245 102.808 39.9511C99.1457 47.2321 94.6079 50.7528 92.4651 51.2719C91.2643 51.5648 89.891 51.0124 88.8826 49.6547C90.3687 48.6963 91.9277 47.6314 93.0622 46.7862C97.2284 43.6648 99.9285 39.5185 100.758 36.4038C101.614 33.1892 100.625 30.6535 98.4889 29.4489C96.3527 28.2376 90.2559 28.6969 85.6982 34.1276C81.1405 39.5584 80.3909 44.2705 80.3909 47.1988C80.3909 48.5232 80.696 49.6746 81.1936 50.6596C78.394 52.0107 75.7536 52.4366 74.4997 51.5448C72.2242 49.9342 72.2971 46.2338 75.1366 38.4403L76.3307 35.2125H78.5996C79.6744 35.2125 81.041 35.2125 81.6115 34.9928C82.1688 34.7732 83.1308 34.4205 83.4957 32.8365C83.7146 31.8781 83.29 30.5803 82.7792 30.3873C81.6447 29.968 81.459 31.0728 78.2082 31.0662H77.8765L79.3692 27.0463C80.7292 23.3326 81.0078 21.4624 80.9415 19.7853C80.8752 18.1947 80.1786 16.6972 78.4271 16.6972C75.8663 16.6972 73.7567 18.0216 74.3007 19.3261C74.7651 20.371 75.0105 20.8768 72.7748 26.9665L71.2556 31.0595H67.2485C69.8491 28.1045 71.1892 23.9715 70.831 20.4508C70.0349 12.9768 62.0208 10.1549 54.9687 11.2198C50.8621 11.8388 46.1784 13.4826 42.5163 18.3211C36.4991 26.2743 38.4761 35.1725 46.3907 39.2856C50.0859 41.382 56.6604 43.3121 56.9191 46.9526C57.2243 51.2054 53.1376 53.5015 50.1522 52.4765C47.8303 51.6779 47.5649 49.8077 48.2018 47.871C48.5866 46.713 49.1107 46.327 49.4689 46.0674C50.1854 45.5483 49.5751 43.8245 47.7573 43.1191C45.6675 42.3071 44.1483 43.2256 43.3986 44.2172C43.1067 44.6032 42.5495 45.2954 42.2244 46.6398C42.1249 47.0125 42.0121 47.911 42.0055 47.9775H42.0121C41.886 50.7661 43.6441 53.7743 48.1023 54.7993C56.4547 56.7227 61.8947 52.2769 62.4852 46.5998C62.996 41.6349 60.5546 39.5851 54.6237 36.111C54.2853 35.9046 50.2451 33.7217 48.8254 32.2508C45.9793 29.3025 46.4968 23.6654 50.7095 19.8319C54.8691 16.045 61.3574 16.5042 64.157 19.3394C67.2751 22.5007 65.3777 29.9481 60.6741 32.557C59.2543 33.3423 59.2676 35.1992 61.4436 35.1992H62.0606H69.6965L68.7678 37.7016C67.7793 40.3371 66.9699 42.8329 66.5586 44.9626C65.6895 49.475 66.1473 55.1853 74.4798 55.1853C77.3657 55.1853 80.3975 54.3068 83.0711 53.009C84.8291 54.5064 87.1179 55.2252 88.8561 55.2252C92.7769 55.2252 96.9232 52.6696 100.154 48.8094C100.227 52.4832 102.304 54.746 104.665 55.1054C107.637 55.5513 110.185 54.5331 113.117 51.3052C113.396 50.9991 113.675 50.6796 113.947 50.3601C114.597 54.4931 117.184 55.152 118.398 55.1986C119.679 55.2452 121.078 54.8991 122.883 53.5081C123.54 53.0023 124.283 52.1904 124.999 51.2786C125.722 53.4948 127.341 54.8459 129.112 55.1121C132.084 55.558 134.632 54.5397 137.564 51.3119C137.843 51.0057 138.122 50.6862 138.394 50.3668C139.044 54.4998 141.631 55.1587 142.845 55.2053C144.125 55.2518 145.525 54.9058 147.33 53.5148C148.086 52.9291 148.955 51.9375 149.778 50.8593C150.335 53.3617 152.04 54.8259 153.984 55.1187C156.226 55.4582 158.23 54.959 160.339 53.3018L158.017 59.6111C156.638 63.3581 156.359 65.2416 156.425 66.9187C156.492 68.5094 157.188 70.0068 158.94 70.0068C161.5 70.0068 163.61 68.6824 163.066 67.378C162.602 66.3331 162.336 65.8273 164.579 59.7376L171.505 41.0692C173.442 35.8647 174.192 34.1609 174.789 33.7749C175.552 33.2025 174.895 31.4988 173.051 30.78C170.928 29.9547 169.574 31.1527 168.937 31.8049C167.929 32.8365 166.722 35.7848 165.667 38.9461L163.829 43.8978C162.973 46.0075 161.686 48.7429 160.134 49.9408C158.104 51.5049 156.936 49.8144 156.757 49.4217C156.273 48.3369 156.405 46.094 157.334 43.4585L158.455 40.437C159.716 36.9429 159.981 35.1459 159.915 33.5353C159.849 31.9646 159.165 30.4872 157.434 30.4872C154.906 30.4872 152.83 31.7916 153.36 33.0828C153.811 34.0944 154.05 34.6068 151.934 40.4037C151.934 40.4037 151.257 42.2273 151.171 42.4602C150.315 44.763 149.221 48.1971 147.317 49.7212C145.738 50.9857 144.577 50.8393 144.709 48.9292C144.842 47.0458 146.076 43.4585 147.084 40.6832L152.073 27.246C153.513 23.3659 153.805 21.4491 153.738 19.7387C153.672 18.1481 152.975 16.6506 151.224 16.6506C148.663 16.6506 146.554 17.975 147.098 19.2795C147.542 20.2844 147.788 20.7969 145.791 26.3209L143.94 31.3058C143.369 30.2476 142.5 29.3424 141.147 29.1095C138.042 28.5771 136.171 29.6153 133.803 31.6452C132.264 32.9696 127.971 36.7632 125.357 44.4102L125.371 44.3969ZM87.4695 43.545C87.7548 39.5451 91.8879 32.3107 94.1966 32.3107C97.0029 32.3107 94.588 41.1225 89.9972 45.3686C89.2475 46.0608 88.4846 46.6464 87.7349 47.1522C87.4762 46.1273 87.37 44.9293 87.4695 43.545ZM110.815 49.9342C108.759 51.4649 107.618 49.8077 107.438 49.4151C106.702 47.7579 107.412 43.738 110.172 39.0659C112.5 35.126 115.393 32.4838 116.713 33.1892C117.974 33.8614 117.602 35.9778 117.191 37.3821C116.992 37.9345 115.904 41.3487 115.088 43.1723C114.272 44.9959 112.394 48.7628 110.809 49.9408L110.815 49.9342ZM135.269 49.9342C133.212 51.4649 132.071 49.8077 131.892 49.4151C131.156 47.7579 131.866 43.738 134.625 39.0659C136.954 35.126 139.846 32.4838 141.167 33.1892C142.792 34.0544 141.711 37.3089 141.319 38.3605C141.319 38.3738 140.152 41.6416 139.541 43.1657C138.931 44.6897 136.848 48.7562 135.262 49.9342H135.269Z" fill="white"/>
<path d="M231 36.6034C230.827 32.4904 229.354 30.9264 228.359 30.0745C227.152 29.0429 225.108 28.4572 223.549 29.4622C221.413 30.8399 221.174 33.7749 222.508 34.3007C223.025 34.507 223.543 34.6401 224.1 36.3106C224.458 37.4819 224.571 38.9395 224.405 40.5101C223.855 45.6281 221.791 50.6862 218.872 51.5781C216.02 52.3235 214.255 48.6497 214.759 43.8245C214.951 41.9876 215.628 38.5468 218.063 34.9529C218.395 34.487 218.753 34.0211 219.131 33.5286C220.106 32.2907 219.496 31.0595 217.963 31.0595H193.57C192.561 31.0595 191.4 31.0728 190.889 31.2791C190.332 31.4987 189.37 31.8515 189.005 33.4355C188.786 34.3938 189.211 35.6916 189.722 35.8846C190.856 36.3039 191.042 35.1991 194.293 35.2058H195.182C199.925 35.2324 202.234 35.6584 201.325 39.9577C200.542 43.6448 197.424 46.7596 194.578 48.6364C193.238 49.3751 191.865 49.8942 190.412 50.1605C184.686 51.1987 181.535 45.1822 183.903 35.8381C186.803 24.4241 193.523 16.4842 197.975 15.4393C198.824 15.2396 201.922 14.8204 202.592 17.4825C202.791 18.2612 202.479 19.6255 202.174 20.4508C201.869 21.2827 203.335 22.3676 205.232 21.9416C207.422 21.4425 208.178 19.8385 208.244 18.5873C208.337 16.8236 207.793 15.2064 207.296 14.3611C206.878 13.6557 206.327 13.0101 205.624 12.4178C202.512 9.77557 193.895 10.2015 185.754 18.8801C179.027 26.0546 176.38 34.8065 175.551 39.818C173.879 49.9674 179.346 54.9656 186.524 55.2452C190.558 55.4049 194.06 53.4349 197.63 50.3934C197.557 51.0323 197.537 51.5914 197.563 52.1371C197.63 53.7277 198.326 55.2252 200.078 55.2252C202.638 55.2252 204.748 53.9008 204.204 52.5963C203.793 51.6646 203.554 51.1588 205.093 46.7329L205.677 45.1556C205.796 44.8361 206.022 44.2238 206.022 44.2238C207.17 40.9627 207.408 39.219 207.349 37.6483C207.309 36.6966 207.044 35.7782 206.46 35.1925H212.902C209.366 39.432 208.092 44.7563 208.224 47.4916C208.47 52.5364 212.557 54.9656 215.661 55.2052C218.395 55.5114 222.229 54.3533 225.699 50.2204C230.257 44.7896 230.98 39.8912 230.98 36.9628C230.98 36.8364 230.98 36.7099 230.98 36.5835L231 36.6034Z" fill="white"/>
</g>
<defs>
<clipPath id="clip0_2478_48121">
<rect width="192" height="59" fill="white" transform="translate(39 11)"/>
</clipPath>
</defs>
</svg>
